<?xml version="1.0" encoding="utf-8"?>
<!-- Generator: Adobe Illustrator 15.0.2, SVG Export Plug-In . SVG Version: 6.00 Build 0)  -->
<!DOCTYPE svg PUBLIC "-//W3C//DTD SVG 1.1//EN" "http://www.w3.org/Graphics/SVG/1.1/DTD/svg11.dtd">
<svg version="1.1" id="Layer_1" xmlns="http://www.w3.org/2000/svg" xmlns:xlink="http://www.w3.org/1999/xlink" x="0px" y="0px"
	 width="219px" height="110px" viewBox="0 0 219 110" enable-background="new 0 0 219 110" xml:space="preserve">
<g>
	<path fill="#D2D76C" d="M109.783,17.163c-44.879,0-82.315,31.872-90.907,74.215c3.101,0,176.245-0.147,181.782-0.147
		C192.009,48.959,154.607,17.163,109.783,17.163z M58.775,51.979c41.403,0.967,43.675,23.298,46.072,30.278
		C104.847,82.258,83.222,62.432,58.775,51.979z M110.436,82.718c-9.286,0.263-1.653-58.172-1.653-58.172
		S119.711,82.455,110.436,82.718z M116.452,81.939c2.007-7.104,3.004-29.527,44.282-32.844
		C136.917,60.92,116.452,81.939,116.452,81.939z"/>
	<path fill="#D2D76C" d="M109.783,0C49.465,0,0.566,48.898,0.566,109.217c-0.119,0.104,218.327-0.021,218.434,0
		C219,48.898,170.102,0,109.783,0z M200.658,95.219c-3.165,0-60.358,0.049-110.818,0.09c-37.156,0.032-69.636,0.062-70.963,0.062
		h-4.881l0.971-4.784c4.373-21.55,16.168-41.178,33.214-55.268c17.275-14.279,39.153-22.144,61.603-22.144
		c22.422,0,44.278,7.847,61.543,22.095c17.032,14.057,28.839,33.647,33.241,55.163l0.979,4.789h-4.889V95.219z"/>
</g>
</svg>
