<?xml version="1.0" encoding="utf-8"?>
<!-- Generator: Adobe Illustrator 15.0.2, SVG Export Plug-In . SVG Version: 6.00 Build 0)  -->
<!DOCTYPE svg PUBLIC "-//W3C//DTD SVG 1.1//EN" "http://www.w3.org/Graphics/SVG/1.1/DTD/svg11.dtd">
<svg version="1.1" id="Layer_1" xmlns="http://www.w3.org/2000/svg" xmlns:xlink="http://www.w3.org/1999/xlink" x="0px" y="0px"
	 width="219px" height="110px" viewBox="0 0 219 110" enable-background="new 0 0 219 110" xml:space="preserve">
<path fill="#D2D76C" d="M109.783,0C49.465,0,0.566,48.898,0.566,109.217c-0.119,0.104,218.327-0.021,218.434,0
	C219,48.898,170.102,0,109.783,0z M200.658,95.219c-3.165,0-60.358,0.049-110.818,0.09c-37.156,0.032-69.636,0.062-70.963,0.062
	h-4.881l0.971-4.784c4.373-21.55,16.168-41.178,33.214-55.268c17.275-14.279,39.153-22.144,61.603-22.144
	c22.422,0,44.278,7.847,61.543,22.095c17.032,14.057,28.839,33.647,33.241,55.163l0.979,4.789h-4.889V95.219z"/>
<path fill="#D2D76C" d="M109.783,17.163c-44.879,0-82.315,31.872-90.907,74.215c3.101,0,176.245-0.147,181.782-0.147
	C192.009,48.959,154.607,17.163,109.783,17.163z M119.861,69.991C112.988,75.225,111.174,77.838,109,80
	c-2.171-2.162-4.079-4.66-10.859-10.009c-6.526-5.14-15.208-10.996-15.208-20.559c0-14.138,17.378-21.734,26.066-8.755
	c8.69-12.979,26.065-5.383,26.065,8.652C135.066,58.893,126.48,64.957,119.861,69.991z"/>
</svg>
