<?xml version="1.0" encoding="utf-8"?>
<!-- Generator: Adobe Illustrator 15.0.2, SVG Export Plug-In . SVG Version: 6.00 Build 0)  -->
<!DOCTYPE svg PUBLIC "-//W3C//DTD SVG 1.1//EN" "http://www.w3.org/Graphics/SVG/1.1/DTD/svg11.dtd">
<svg version="1.1" id="Layer_1" xmlns="http://www.w3.org/2000/svg" xmlns:xlink="http://www.w3.org/1999/xlink" x="0px" y="0px"
	 width="219px" height="110px" viewBox="0 0 219 110" enable-background="new 0 0 219 110" xml:space="preserve">
<path fill="#FFFFFF" d="M109.783,17.163c-44.879,0-82.315,31.872-90.907,74.215c3.101,0,176.245-0.148,181.782-0.148
	C192.009,48.959,154.608,17.163,109.783,17.163z M137.876,80.305H80.128V75.59c0.221-1.016,0.554-1.98,1.001-2.898
	c0.371-0.795,0.878-1.564,1.522-2.318c0.644-0.76,1.471-1.32,2.486-1.693c0.521-0.172,1.203-0.424,2.044-0.762
	c0.844-0.334,1.783-0.719,2.824-1.15c1.039-0.432,2.134-0.896,3.285-1.393s2.298-0.99,3.436-1.484
	c1.138-0.498,2.214-0.965,3.229-1.41c1.02-0.449,1.908-0.844,2.677-1.189v-4.234c-0.05-0.197-0.13-0.5-0.242-0.912
	c-0.112-0.409-0.228-0.822-0.353-1.245c-0.146-0.491-0.322-1.025-0.52-1.596c-0.717-1.337-1.285-2.851-1.708-4.547
	s-0.632-3.499-0.632-5.404c0-2.503,0.266-4.62,0.799-6.35c0.533-1.736,1.257-3.146,2.174-4.234c0.916-1.09,1.985-1.882,3.212-2.378
	c1.224-0.498,2.542-0.742,3.954-0.742c1.387,0,2.693,0.239,3.918,0.724c1.227,0.483,2.3,1.262,3.23,2.338
	c0.931,1.078,1.659,2.49,2.192,4.236c0.533,1.741,0.797,3.882,0.797,6.406c0,1.858-0.202,3.618-0.611,5.291
	c-0.409,1.674-0.973,3.175-1.689,4.517c-0.199,0.613-0.386,1.196-0.557,1.739c-0.15,0.475-0.287,0.926-0.409,1.356
	c-0.122,0.438-0.184,0.754-0.184,0.949v4.344c0.79,0.346,1.694,0.742,2.707,1.189c1.016,0.443,2.063,0.902,3.14,1.375
	s2.167,0.938,3.267,1.412c1.102,0.471,2.152,0.906,3.142,1.32c0.989,0.404,1.88,0.77,2.672,1.094
	c0.794,0.324,1.436,0.568,1.931,0.74c1.039,0.373,1.883,0.934,2.529,1.693c0.641,0.754,1.146,1.523,1.522,2.318
	c0.441,0.918,0.766,1.883,0.963,2.898V80.305z"/>
<path fill="#FFFFFF" d="M109.783,0C49.465,0,0.566,48.898,0.566,109.217c-0.119,0.104,218.326-0.021,218.434,0
	C219,48.898,170.102,0,109.783,0z M200.658,95.219c-3.165,0-60.358,0.048-110.818,0.09c-37.156,0.032-69.636,0.06-70.963,0.06
	h-4.881l0.971-4.784c4.373-21.55,16.168-41.178,33.214-55.268c17.275-14.279,39.153-22.144,61.603-22.144
	c22.422,0,44.278,7.847,61.543,22.095c17.033,14.057,28.839,33.647,33.242,55.161l0.979,4.79H200.658z"/>
<path opacity="0.5" fill="#FFFFFF" d="M134.741,54.798v2.536c0.461,0.199,0.989,0.432,1.582,0.693c0.592,0.258,1.2,0.525,1.83,0.801
	s1.265,0.547,1.906,0.824c0.642,0.273,1.252,0.529,1.83,0.77c0.578,0.236,1.098,0.449,1.561,0.639
	c0.463,0.188,0.836,0.332,1.125,0.43c0.608,0.219,1.098,0.549,1.474,0.99c0.376,0.439,0.672,0.889,0.889,1.354
	c0.258,0.533,0.448,1.098,0.563,4.441v4.812h-33.687v-7.564c0.132-0.592,0.324-1.156,0.583-1.689
	c0.216-0.465,0.512-0.914,0.888-1.354c0.376-0.441,0.86-0.771,1.452-0.99c0.304-0.098,0.7-0.246,1.191-0.443
	c0.491-0.193,1.041-0.418,1.647-0.67s1.245-0.523,1.917-0.812s1.34-0.576,2.002-0.865c0.668-0.291,1.293-0.564,1.885-0.822
	c0.597-0.264,1.114-0.494,1.561-0.695v-2.47c-0.026-0.115-0.075-0.291-0.139-0.531c-0.065-0.239-0.134-0.479-0.207-0.726
	c-0.087-0.287-0.188-0.6-0.303-0.931c-0.419-0.78-0.752-1.664-0.997-2.653c-0.244-0.989-0.368-2.042-0.368-3.153
	c0-1.459,0.157-2.695,0.468-3.703c0.31-1.013,0.732-1.835,1.266-2.47c0.534-0.637,1.159-1.098,1.873-1.386
	c0.717-0.292,1.485-0.436,2.308-0.436c0.811,0,1.569,0.142,2.284,0.423c0.717,0.282,1.344,0.736,1.887,1.363
	c0.541,0.63,0.966,1.455,1.278,2.472c0.312,1.016,0.466,2.266,0.466,3.736c0,1.086-0.12,2.112-0.357,3.088s-0.566,1.852-0.984,2.634
	c-0.118,0.357-0.226,0.698-0.324,1.016c-0.09,0.277-0.17,0.54-0.24,0.789C134.777,54.5,134.741,54.686,134.741,54.798z"/>
<path opacity="0.5" fill="#FFFFFF" d="M91.431,54.798v2.536c0.46,0.199,0.989,0.432,1.581,0.693c0.592,0.258,1.2,0.525,1.83,0.801
	s1.265,0.547,1.906,0.824c0.642,0.273,1.252,0.529,1.83,0.77c0.578,0.236,1.098,0.449,1.561,0.639
	c0.463,0.188,0.836,0.332,1.125,0.43c0.609,0.219,1.098,0.549,1.474,0.99c0.376,0.439,0.672,0.889,0.889,1.354
	c0.258,0.533,0.448,1.098,0.563,4.441v4.812H70.503v-7.564c0.132-0.592,0.324-1.156,0.583-1.689
	c0.216-0.465,0.512-0.914,0.888-1.354c0.375-0.441,0.86-0.771,1.452-0.99c0.303-0.098,0.7-0.246,1.191-0.443
	c0.491-0.193,1.041-0.418,1.647-0.67s1.245-0.523,1.917-0.812c0.672-0.289,1.339-0.576,2.002-0.865
	c0.667-0.291,1.292-0.564,1.884-0.822c0.597-0.264,1.114-0.494,1.561-0.695v-2.47c-0.025-0.115-0.075-0.291-0.139-0.531
	c-0.065-0.239-0.134-0.479-0.207-0.726c-0.087-0.287-0.188-0.6-0.303-0.931c-0.418-0.78-0.752-1.664-0.997-2.653
	c-0.244-0.989-0.369-2.042-0.369-3.153c0-1.459,0.157-2.695,0.467-3.703c0.311-1.013,0.733-1.835,1.267-2.47
	c0.533-0.637,1.158-1.098,1.872-1.386c0.717-0.292,1.485-0.436,2.308-0.436c0.811,0,1.57,0.142,2.284,0.423
	c0.717,0.282,1.344,0.736,1.887,1.363c0.541,0.63,0.966,1.455,1.278,2.472c0.312,1.016,0.466,2.266,0.466,3.736
	c0,1.086-0.12,2.112-0.357,3.088s-0.566,1.852-0.984,2.634c-0.118,0.357-0.226,0.698-0.324,1.016c-0.09,0.277-0.17,0.54-0.24,0.789
	C91.466,54.5,91.431,54.686,91.431,54.798z"/>
</svg>
