<?xml version="1.0" encoding="utf-8"?>
<!-- Generator: Adobe Illustrator 15.0.2, SVG Export Plug-In . SVG Version: 6.00 Build 0)  -->
<!DOCTYPE svg PUBLIC "-//W3C//DTD SVG 1.1//EN" "http://www.w3.org/Graphics/SVG/1.1/DTD/svg11.dtd">
<svg version="1.1" id="Layer_1" xmlns="http://www.w3.org/2000/svg" xmlns:xlink="http://www.w3.org/1999/xlink" x="0px" y="0px"
	 width="219px" height="110px" viewBox="0 0 219 110" enable-background="new 0 0 219 110" xml:space="preserve">
<g>
	<path fill="#FFFFFF" d="M109.783,17.163c-44.879,0-82.315,31.872-90.907,74.215c3.101,0,176.245-0.148,181.782-0.148
		C192.009,48.959,154.608,17.163,109.783,17.163z M124.826,52.822l-15,30.51l-14.99-30.51h0.015c-1.472-2.57-2.333-5.54-2.333-8.719
		c0-9.629,7.753-17.436,17.314-17.436c9.562,0,17.314,7.807,17.314,17.436c0,3.179-0.86,6.148-2.34,8.719H124.826z"/>
	<path fill="#FFFFFF" d="M109.833,35.385c-4.781,0-8.657,3.904-8.657,8.719c0,4.812,3.876,8.716,8.657,8.716
		c4.783,0,8.657-3.904,8.657-8.716C118.49,39.289,114.616,35.385,109.833,35.385z"/>
	<path fill="#FFFFFF" d="M109.783,0C49.465,0,0.566,48.898,0.566,109.217c-0.119,0.104,218.326-0.021,218.434,0
		C219,48.898,170.102,0,109.783,0z M200.658,95.219c-3.165,0-60.358,0.048-110.818,0.09c-37.156,0.032-69.636,0.06-70.963,0.06
		h-4.881l0.971-4.784c4.373-21.55,16.168-41.178,33.214-55.268c17.275-14.279,39.153-22.144,61.603-22.144
		c22.422,0,44.278,7.847,61.543,22.095c17.033,14.057,28.839,33.647,33.242,55.161l0.979,4.79H200.658z"/>
</g>
</svg>
