<?xml version="1.0" encoding="utf-8"?>
<!-- Generator: Adobe Illustrator 15.0.2, SVG Export Plug-In . SVG Version: 6.00 Build 0)  -->
<!DOCTYPE svg PUBLIC "-//W3C//DTD SVG 1.1//EN" "http://www.w3.org/Graphics/SVG/1.1/DTD/svg11.dtd">
<svg version="1.1" id="Layer_1" xmlns="http://www.w3.org/2000/svg" xmlns:xlink="http://www.w3.org/1999/xlink" x="0px" y="0px"
	 width="768px" height="125px" viewBox="0 0 768 125" enable-background="new 0 0 768 125" xml:space="preserve">
<path fill="#9EBA3F" d="M715.554,1.278c31.813,0,6.832,61.272,52.078,61.272c-45.246,0-21.209,62.208-53.024,62.208
	c-31.813,0-629.683,0-661.497,0S45.333,62.55,0.087,62.55c45.246,0,22.154-61.272,53.968-61.272S683.738,1.278,715.554,1.278z"/>
<path fill="#FFFFFF" d="M706.796,17.867c9.222,0,10.472,6.151,12.05,17.94c1.241,9.273,2.819,21.049,13.027,26.744
	c-10.208,5.697-11.786,17.469-13.027,26.743c-1.578,11.786-2.828,17.934-12.05,17.934H63.481c-9.379,0-11.014-6.212-13.309-18.124
	C48.399,79.898,46.15,68.22,35.708,62.55c10.442-5.668,12.691-17.349,14.464-26.556c2.295-11.912,3.929-18.127,13.309-18.127
	h247.913h84.837H706.796 M706.796,14.473c-13.599,0-162.257,0-310.564,0h-84.837c-145.78,0-234.539,0-247.913,0
	c-27.665,0-3.936,48.077-43.28,48.077c39.344,0,15.615,48.068,43.28,48.068c27.663,0,615.655,0,643.315,0
	c27.665,0,1.109-48.068,40.452-48.068C707.905,62.55,734.461,14.473,706.796,14.473L706.796,14.473z"/>
<g>
	<path fill="#FFFFFF" d="M189.634,63.085l-3.278,2.901v16.656h-5.749V65.987h-16.388v16.656h-5.75V65.987l-3.277-2.901l3.277-2.848
		V43.312h5.75v16.925h16.388V43.312h5.749v16.925L189.634,63.085z"/>
	<path fill="#FFFFFF" d="M227.889,82.643h-23.803V65.987l-3.277-2.901l3.277-2.848V43.312h23.803v5.75h-18.053v11.176h13.916v5.749
		h-13.916v10.908h18.053V82.643z"/>
	<path fill="#FFFFFF" d="M268.562,82.697h-6.232l-8.221-16.656h-7.038v16.656h-5.75V66.041l-3.277-2.901l3.277-2.848V43.312h19.021
		l6.394,7.415v7.897l-6.394,7.416L268.562,82.697z M260.987,56.135v-3.024l-3.385-4.049h-10.531v11.229h10.531L260.987,56.135z"/>
	<path fill="#FFFFFF" d="M308.43,75.335l-6.178,7.362h-19.666v-16.71l-3.277-2.848l3.277-2.848V43.312h19.074l6.394,7.415v7.897
		l-3.653,4.191l4.029,4.299V75.335z M302.305,56.173v-2.995l-3.386-4.116h-10.584v11.176h10.584L302.305,56.173z M302.681,72.831
		V69.57l-3.17-3.476h-11.176v10.854h11.176L302.681,72.831z"/>
	<path fill="#FFFFFF" d="M353.724,82.697h-6.018l-3.707-9.833H327.88l-3.708,9.833h-6.018l6.232-16.656l-2.74-2.901l4.782-2.472
		l6.501-17.354h6.018L353.724,82.697z M341.85,67.116l-5.91-16.12l-5.91,16.12H341.85z"/>
	<path fill="#FFFFFF" d="M390.207,82.697h-23.803v-16.71l-3.277-2.848l3.277-2.901V43.312h5.749v33.636h18.054V82.697z"/>
	<path fill="#FFFFFF" d="M446.354,76.142l-7.361,6.555h-13.969l-7.416-6.5V66.041l-3.277-2.901l3.277-2.848V49.868l7.416-6.556
		h13.969l7.361,6.556v8.221h-5.749v-5.643l-4.084-3.384h-9.08l-4.084,3.539v20.807l4.084,3.54h9.08l4.084-3.385v-4.836h5.749V76.142
		z"/>
	<path fill="#FFFFFF" d="M490.949,82.697h-6.018l-3.706-9.833h-16.119l-3.708,9.833h-6.018l6.232-16.656l-2.74-2.901l4.781-2.472
		l6.503-17.354h6.017L490.949,82.697z M479.076,67.116l-5.911-16.12l-5.91,16.12H479.076z"/>
	<path fill="#FFFFFF" d="M529.797,75.335l-6.18,7.362h-19.665v-16.71l-3.278-2.848l3.278-2.848V43.312h19.074l6.395,7.415v7.897
		l-3.655,4.191l4.031,4.299V75.335z M523.671,56.173v-2.995l-3.384-4.116h-10.586v11.176h10.586L523.671,56.173z M524.047,72.831
		V69.57l-3.17-3.476h-11.176v10.854h11.176L524.047,72.831z"/>
	<path fill="#FFFFFF" d="M553.921,63.139l-3.277,2.901v16.656h-5.75V66.041l-3.276-2.901l3.276-2.848V43.312h5.75v16.979
		L553.921,63.139z"/>
	<path fill="#FFFFFF" d="M599.645,63.139l-3.278,2.848v16.71h-5.749l-16.441-29.175v29.175h-5.749v-16.71l-3.278-2.848l3.278-2.901
		V43.312h6.071l16.119,28.369V43.312h5.749v16.925L599.645,63.139z"/>
	<path fill="#FFFFFF" d="M637.147,82.643h-23.803V65.987l-3.278-2.901l3.278-2.848V43.312h23.803v5.75h-18.055v11.176h13.917v5.749
		h-13.917v10.908h18.055V82.643z"/>
	<path fill="#FFFFFF" d="M675.134,49.062H663.69v11.229l3.277,2.848l-3.277,2.848v16.71h-5.749v-16.71l-3.277-2.848l3.277-2.848
		V49.062h-11.499v-5.75h28.691V49.062z"/>
</g>
<g>
	<path fill="#347439" d="M47.691,62.078c0,5.303,33.229,0,33.229,0S47.691,56.778,47.691,62.078z"/>
	<path fill="#347439" d="M48.044,65.259c4.021,1.256,16.804,2.19,18.028,25.805C59.709,77.28,48.044,65.259,48.044,65.259z"/>
	<path fill="#347439" d="M48.044,58.9c4.021-1.26,16.804-2.194,18.028-25.808C59.709,46.877,48.044,58.9,48.044,58.9z"/>
</g>
<g>
	<path fill="#347439" d="M722.529,63.321c0-5.178-32.443,0-32.443,0S722.529,68.499,722.529,63.321z"/>
	<path fill="#347439" d="M722.186,60.215c-3.926-1.225-16.409-2.136-17.604-25.196C710.795,48.479,722.186,60.215,722.186,60.215z"
		/>
	<path fill="#347439" d="M722.186,66.427c-3.926,1.227-16.409,2.139-17.604,25.196C710.795,78.163,722.186,66.427,722.186,66.427z"
		/>
</g>
<g>
	<path fill="#FFFFFF" d="M108.291,52.095c-1.041,0-2.217-0.092-3.394-0.182c0.135,0.227,0.135,0.634,0.045,0.905
		c-3.258,13.032-4.706,19.82-5.928,25.748c-0.181,0.814-0.859,1.176-1.539,1.176c-0.904,0-1.9-0.633-1.9-1.765
		c0-1.448,1.991-13.891,4.932-24.571c0.226-0.769,0.814-1.356,1.629-1.72c-1.357-0.135-2.715-0.181-4.072-0.181
		c-1.268,0-2.489,0.181-3.711,0.181c-0.543,0-0.769-0.316-0.769-0.724c0-1.041,1.176-2.76,2.172-2.896
		c1.222-0.181,2.534-0.226,3.892-0.226c2.353,0,4.796,0.181,7.059,0.181c1.403,0,2.76-0.271,3.937-0.271
		c0.769,0,1.131,0.905,1.131,1.9c0,1.041-0.407,2.126-1.267,2.262C109.829,52.05,109.06,52.095,108.291,52.095z"/>
	<path fill="#FFFFFF" d="M118.788,76.348c0,0.724,0.226,1.131,0.814,1.131c1.493,0,2.986-3.484,4.887-7.149
		c0.226-0.452,0.588-0.769,0.814-0.769c0.181,0,0.271,0.135,0.271,0.407c0,0.181-0.045,0.453-0.181,0.814
		c-0.633,1.629-2.896,9.14-6.833,9.14c-1.81,0-3.529-1.267-3.529-3.981c0-3.938,3.574-12.308,3.574-15.295
		c0-0.679-0.181-1.085-0.633-1.085c-1.312,0-4.887,5.339-6.833,13.756c-1.04,4.887-0.904,6.606-2.715,6.606
		c-0.859,0-1.719-0.633-1.719-1.991c0-2.941,3.167-19.004,6.245-29.367c0.226-0.814,0.95-1.176,1.765-1.176
		c1.085,0,2.262,0.724,2.262,1.901c0,1.448-1.267,3.982-3.484,13.665c1.629-3.575,3.62-6.199,5.702-6.199
		c2.67,0,3.349,2.127,3.349,3.801C122.543,65.579,118.788,73.407,118.788,76.348z"/>
	<path fill="#FFFFFF" d="M138.379,61.461c0,4.344-3.259,10.453-8.055,10.453c-0.543,0-1.131-0.091-1.719-0.271
		c0,1.991,0.181,5.43,2.986,5.43c4.298,0,6.606-4.887,7.783-6.742c0.271-0.452,0.498-0.633,0.724-0.633
		c0.181,0,0.317,0.181,0.317,0.453c0,0.181-0.045,0.407-0.136,0.633c-2.036,5.068-5.204,9.049-10.407,9.049
		c-3.891,0-5.475-3.529-5.475-7.828c0-6.742,3.892-15.475,8.643-15.475c0.996,0,2.036,0.316,2.58,0.769
		C137.519,57.524,138.379,59.244,138.379,61.461z M129.057,70.466c2.67,0,6.517-7.15,6.517-10.679c0-0.724-0.09-1.493-0.77-1.493
		c-2.58,0-5.566,6.697-6.108,12.127C128.831,70.466,128.921,70.466,129.057,70.466z"/>
</g>
</svg>
