<?xml version="1.0" encoding="utf-8"?>
<!-- Generator: Adobe Illustrator 15.0.2, SVG Export Plug-In . SVG Version: 6.00 Build 0)  -->
<!DOCTYPE svg PUBLIC "-//W3C//DTD SVG 1.1//EN" "http://www.w3.org/Graphics/SVG/1.1/DTD/svg11.dtd">
<svg version="1.1" id="Layer_1" xmlns="http://www.w3.org/2000/svg" xmlns:xlink="http://www.w3.org/1999/xlink" x="0px" y="0px"
	 width="772px" height="138px" viewBox="0 0 772 138" enable-background="new 0 0 772 138" xml:space="preserve">
<path fill="none" d="M472.157,50.312l-6.503,17.354l-4.781,2.473l2.74,2.9l-6.232,16.656h6.019l3.708-9.834h16.118l3.706,9.834
	h6.019l-14.775-39.384L472.157,50.312L472.157,50.312z M469.255,74.116l5.91-16.12l5.911,16.12H469.255z"/>
<path fill="none" d="M310.054,65.625v-7.897l-6.394-7.415h-19.074v16.979l-3.277,2.849l3.277,2.848v16.71h19.666l6.178-7.362v-8.219
	l-4.028-4.299L310.054,65.625z M290.335,56.062h10.584l3.386,4.116v2.995l-3.386,4.064h-10.584V56.062L290.335,56.062z
	 M304.681,79.831l-3.17,4.117h-11.176V73.094h11.176l3.17,3.477V79.831z"/>
<path fill="none" d="M268.736,65.625v-7.897l-6.394-7.415h-19.021v16.979l-3.277,2.849l3.277,2.9v16.656h5.75V73.041h7.038
	l8.221,16.656h6.232l-8.22-16.656L268.736,65.625z M249.071,67.292v-11.23h10.531l3.385,4.049v3.024l-3.385,4.157H249.071z"/>
<polygon fill="none" points="427.024,50.312 419.608,56.868 419.608,67.292 416.331,70.139 419.608,73.041 419.608,83.195 
	427.024,89.697 440.993,89.697 448.354,83.143 448.354,75.727 442.605,75.727 442.605,80.562 438.521,83.948 429.441,83.948 
	425.357,80.408 425.357,59.601 429.441,56.062 438.521,56.062 442.605,59.446 442.605,65.089 448.354,65.089 448.354,56.868 
	440.993,50.312 "/>
<path fill="none" d="M724.186,67.215c0,0-11.391-11.735-17.604-25.196C707.776,65.079,720.26,65.99,724.186,67.215z"/>
<polygon fill="none" points="374.153,50.312 368.404,50.312 368.404,67.238 365.127,70.139 368.404,72.986 368.404,89.697 
	392.207,89.697 392.207,83.948 374.153,83.948 "/>
<path fill="none" d="M334.931,50.312l-6.501,17.354l-4.781,2.473l2.739,2.9l-6.231,16.656h6.018l3.708-9.834h16.119l3.707,9.834
	h6.018l-14.774-39.384L334.931,50.312L334.931,50.312z M332.029,74.116l5.91-16.12l5.909,16.12H332.029z"/>
<polygon fill="none" points="206.086,67.238 202.809,70.085 206.086,72.986 206.086,89.643 229.889,89.643 229.889,83.895 
	211.836,83.895 211.836,72.986 225.751,72.986 225.751,67.238 211.836,67.238 211.836,56.062 229.889,56.062 229.889,50.312 
	206.086,50.312 "/>
<path fill="none" d="M49.691,69.078c0,5.303,33.229,0,33.229,0S49.691,63.778,49.691,69.078z"/>
<path fill="none" d="M68.072,40.092C61.709,53.877,50.044,65.9,50.044,65.9C54.065,64.64,66.849,63.706,68.072,40.092z"/>
<path fill="none" d="M50.044,72.259c0,0,11.665,12.021,18.028,25.806C66.849,74.449,54.065,73.516,50.044,72.259z"/>
<path fill="none" d="M110.291,59.095c0.769,0,1.539-0.045,2.217-0.182c0.86-0.136,1.267-1.222,1.267-2.262
	c0-0.996-0.362-1.9-1.131-1.9c-1.176,0-2.534,0.271-3.937,0.271c-2.263,0-4.707-0.181-7.059-0.181c-1.357,0-2.67,0.045-3.892,0.226
	c-0.996,0.136-2.172,1.855-2.172,2.896c0,0.407,0.226,0.724,0.769,0.724c1.222,0,2.443-0.181,3.711-0.181
	c1.357,0,2.715,0.045,4.072,0.181c-0.814,0.363-1.403,0.951-1.629,1.72c-2.941,10.68-4.932,23.122-4.932,24.571
	c0,1.131,0.996,1.765,1.9,1.765c0.679,0,1.357-0.362,1.539-1.177c1.222-5.928,2.669-12.715,5.928-25.748
	c0.09-0.271,0.09-0.678-0.045-0.905C108.073,59.003,109.25,59.095,110.291,59.095z"/>
<path fill="none" d="M142.098,76.697c-0.226,0-0.453,0.181-0.724,0.633c-1.177,1.855-3.484,6.742-7.783,6.742
	c-2.806,0-2.986-3.439-2.986-5.43c0.588,0.181,1.176,0.271,1.719,0.271c4.796,0,8.055-6.108,8.055-10.453
	c0-2.217-0.86-3.937-2.76-4.163c-0.543-0.453-1.583-0.769-2.58-0.769c-4.371,0-8.006,7.389-8.561,13.822
	c-1.896,3.657-3.386,7.129-4.876,7.129c-0.588,0-0.814-0.408-0.814-1.131c0-2.941,3.755-10.771,3.755-15.792
	c0-1.674-0.679-3.801-3.349-3.801c-2.082,0-4.072,2.625-5.702,6.199c2.217-9.683,3.484-12.217,3.484-13.665
	c0-1.177-1.177-1.901-2.262-1.901c-0.814,0-1.539,0.362-1.765,1.176c-3.077,10.363-6.245,26.426-6.245,29.367
	c0,1.358,0.86,1.991,1.719,1.991c1.811,0,1.675-1.719,2.715-6.606c1.946-8.416,5.521-13.755,6.833-13.755
	c0.452,0,0.633,0.407,0.633,1.085c0,2.988-3.574,11.358-3.574,15.295c0,2.715,1.719,3.98,3.529,3.98
	c2.817,0,4.772-3.839,5.892-6.624c0.299,3.688,1.928,6.533,5.419,6.533c5.204,0,8.371-3.981,10.407-9.05
	c0.091-0.227,0.136-0.452,0.136-0.633C142.415,76.878,142.279,76.697,142.098,76.697z M136.804,65.294
	c0.679,0,0.77,0.769,0.77,1.493c0,3.529-3.846,10.679-6.517,10.679c-0.135,0-0.226,0-0.361-0.045
	C131.238,71.991,134.224,65.294,136.804,65.294z"/>
<polygon fill="none" points="188.356,50.312 182.607,50.312 182.607,67.238 166.219,67.238 166.219,50.312 160.47,50.312 
	160.47,67.238 157.192,70.085 160.47,72.986 160.47,89.643 166.219,89.643 166.219,72.986 182.607,72.986 182.607,89.643 
	188.356,89.643 188.356,72.986 191.634,70.085 188.356,67.238 "/>
<polygon fill="none" points="598.366,50.312 592.617,50.312 592.617,78.682 576.498,50.312 570.427,50.312 570.427,67.238 
	567.148,70.139 570.427,72.986 570.427,89.697 576.176,89.697 576.176,60.521 592.617,89.697 598.366,89.697 598.366,72.986 
	601.645,70.139 598.366,67.238 "/>
<path fill="none" d="M692.086,70.32c0,0,32.443,5.179,32.443,0C724.529,65.143,692.086,70.32,692.086,70.32z"/>
<polygon fill="none" points="648.442,56.062 659.941,56.062 659.941,67.292 656.664,70.139 659.941,72.986 659.941,89.697 
	665.69,89.697 665.69,72.986 668.968,70.139 665.69,67.292 665.69,56.062 677.134,56.062 677.134,50.312 648.442,50.312 "/>
<path fill="none" d="M706.582,98.624c6.213-13.46,17.604-25.196,17.604-25.196C720.26,74.654,707.776,75.566,706.582,98.624z"/>
<path fill="none" d="M708.796,21.473c-13.599,0-162.257,0-310.563,0h-84.838c-145.779,0-234.539,0-247.913,0
	c-27.665,0-3.936,48.077-43.28,48.077c39.344,0,15.615,48.068,43.28,48.068c27.663,0,615.655,0,643.315,0
	c27.665,0,1.109-48.068,40.452-48.068C709.905,69.55,736.461,21.473,708.796,21.473z M720.846,96.293
	c-1.578,11.786-2.828,17.934-12.05,17.934H65.481c-9.379,0-11.014-6.211-13.309-18.123c-1.773-9.205-4.022-20.883-14.464-26.554
	c10.442-5.668,12.691-17.349,14.464-26.556c2.295-11.912,3.929-18.127,13.309-18.127h247.913h84.838h310.563
	c9.222,0,10.472,6.151,12.05,17.94c1.241,9.273,2.819,21.049,13.027,26.744C723.665,75.248,722.087,87.02,720.846,96.293z"/>
<polygon fill="none" points="615.345,67.238 612.066,70.085 615.345,72.986 615.345,89.643 639.146,89.643 639.146,83.895 
	621.093,83.895 621.093,72.986 635.01,72.986 635.01,67.238 621.093,67.238 621.093,56.062 639.146,56.062 639.146,50.312 
	615.345,50.312 "/>
<path fill="none" d="M531.421,65.625v-7.897l-6.395-7.415h-19.074v16.979l-3.278,2.849l3.278,2.848v16.71h19.665l6.18-7.362v-8.219
	l-4.031-4.299L531.421,65.625z M511.701,56.062h10.586l3.384,4.116v2.995l-3.384,4.064h-10.586V56.062z M526.047,79.831l-3.17,4.117
	h-11.176V73.094h11.176l3.17,3.477V79.831z"/>
<polygon fill="none" points="552.644,50.312 546.894,50.312 546.894,67.292 543.617,70.139 546.894,73.041 546.894,89.697 
	552.644,89.697 552.644,73.041 555.921,70.139 552.644,67.292 "/>
<polygon fill="#FFFFFF" points="332.029,74.116 343.85,74.116 337.939,57.996 "/>
<polygon fill="#FFFFFF" points="290.335,73.094 290.335,83.948 301.511,83.948 304.681,79.831 304.681,76.57 301.511,73.094 "/>
<polygon fill="#FFFFFF" points="304.305,63.173 304.305,60.178 300.919,56.062 290.335,56.062 290.335,67.238 300.919,67.238 "/>
<polygon fill="#FFFFFF" points="525.671,63.173 525.671,60.178 522.287,56.062 511.701,56.062 511.701,67.238 522.287,67.238 "/>
<polygon fill="#FFFFFF" points="262.987,60.111 259.602,56.062 249.071,56.062 249.071,67.292 259.602,67.292 262.987,63.135 "/>
<polygon fill="#FFFFFF" points="511.701,73.094 511.701,83.948 522.877,83.948 526.047,79.831 526.047,76.57 522.877,73.094 "/>
<path fill="#FFFFFF" d="M137.573,66.787c0-0.724-0.09-1.493-0.77-1.493c-2.58,0-5.566,6.697-6.108,12.127
	c0.136,0.045,0.226,0.045,0.361,0.045C133.727,77.466,137.573,70.316,137.573,66.787z"/>
<path fill="#FFFFFF" d="M717.554,6.278c-31.814,0-629.685,0-661.499,0S47.333,69.55,2.087,69.55
	c45.246,0,21.209,62.208,53.023,62.208s629.684,0,661.498,0c31.814,0,7.777-62.208,53.023-62.208
	C724.386,69.55,749.367,6.278,717.554,6.278z M708.796,117.619c-27.66,0-615.652,0-643.315,0c-27.665,0-3.936-48.068-43.28-48.068
	c39.344,0,15.615-48.077,43.28-48.077c13.375,0,102.133,0,247.913,0h84.838c148.308,0,296.966,0,310.563,0
	c27.665,0,1.109,48.077,40.452,48.077C709.905,69.55,736.461,117.619,708.796,117.619z"/>
<polygon fill="#FFFFFF" points="469.255,74.116 481.076,74.116 475.165,57.996 "/>
<path fill="#FFFFFF" d="M720.846,42.807c-1.578-11.789-2.828-17.94-12.05-17.94H398.231h-84.838H65.481
	c-9.379,0-11.014,6.216-13.309,18.127c-1.773,9.208-4.022,20.888-14.464,26.556c10.442,5.671,12.691,17.349,14.464,26.554
	c2.295,11.912,3.929,18.123,13.309,18.123h643.315c9.222,0,10.472-6.146,12.05-17.934c1.241-9.273,2.819-21.046,13.027-26.743
	C723.665,63.856,722.087,52.08,720.846,42.807z M68.072,40.092C66.849,63.706,54.065,64.64,50.044,65.9
	C50.044,65.9,61.709,53.877,68.072,40.092z M50.044,72.259c4.021,1.257,16.804,2.19,18.028,25.806
	C61.709,84.279,50.044,72.259,50.044,72.259z M49.691,69.078c0-5.3,33.229,0,33.229,0S49.691,74.381,49.691,69.078z M106.942,59.818
	c-3.258,13.032-4.706,19.821-5.928,25.749c-0.181,0.813-0.859,1.176-1.539,1.176c-0.904,0-1.9-0.633-1.9-1.766
	c0-1.447,1.991-13.891,4.932-24.57c0.226-0.769,0.814-1.356,1.629-1.72c-1.357-0.135-2.715-0.181-4.072-0.181
	c-1.268,0-2.489,0.181-3.711,0.181c-0.543,0-0.769-0.316-0.769-0.724c0-1.041,1.176-2.76,2.172-2.896
	c1.222-0.181,2.534-0.226,3.892-0.226c2.353,0,4.796,0.181,7.059,0.181c1.403,0,2.76-0.271,3.937-0.271
	c0.769,0,1.131,0.905,1.131,1.9c0,1.041-0.407,2.126-1.267,2.262c-0.679,0.137-1.448,0.182-2.217,0.182
	c-1.041,0-2.217-0.092-3.394-0.182C107.032,59.14,107.032,59.547,106.942,59.818z M142.279,77.783
	c-2.036,5.068-5.204,9.049-10.407,9.049c-3.491,0-5.121-2.844-5.419-6.533c-1.119,2.785-3.074,6.624-5.892,6.624
	c-1.81,0-3.529-1.267-3.529-3.981c0-3.938,3.574-12.308,3.574-15.294c0-0.679-0.181-1.085-0.633-1.085
	c-1.312,0-4.887,5.338-6.833,13.756c-1.04,4.887-0.904,6.605-2.715,6.605c-0.859,0-1.719-0.633-1.719-1.99
	c0-2.941,3.167-19.004,6.245-29.368c0.226-0.814,0.95-1.176,1.765-1.176c1.085,0,2.262,0.724,2.262,1.901
	c0,1.448-1.267,3.982-3.484,13.665c1.629-3.575,3.62-6.199,5.702-6.199c2.67,0,3.349,2.127,3.349,3.801
	c0,5.023-3.755,12.852-3.755,15.792c0,0.725,0.226,1.131,0.814,1.131c1.49,0,2.98-3.471,4.876-7.127
	c0.555-6.434,4.19-13.822,8.561-13.822c0.996,0,2.036,0.316,2.58,0.769c1.9,0.226,2.76,1.946,2.76,4.163
	c0,4.344-3.259,10.453-8.055,10.453c-0.543,0-1.131-0.091-1.719-0.271c0,1.991,0.181,5.431,2.986,5.431
	c4.298,0,6.606-4.888,7.783-6.742c0.271-0.452,0.498-0.633,0.724-0.633c0.181,0,0.317,0.181,0.317,0.452
	C142.415,77.33,142.37,77.557,142.279,77.783z M188.356,72.986v16.656h-5.749V72.986h-16.388v16.656h-5.75V72.986l-3.277-2.9
	l3.277-2.848V50.312h5.75v16.925h16.388V50.312h5.749v16.925l3.278,2.848L188.356,72.986z M229.889,56.062h-18.053v11.176h13.916
	v5.749h-13.916v10.908h18.053v5.75h-23.803V72.986l-3.277-2.9l3.277-2.848V50.312h23.803V56.062z M264.33,89.697l-8.221-16.656
	h-7.038v16.656h-5.75V73.041l-3.277-2.9l3.277-2.849v-16.98h19.021l6.394,7.415v7.897l-6.394,7.416l8.22,16.655h-6.232V89.697z
	 M310.43,82.335l-6.178,7.362h-19.666V72.986l-3.277-2.848l3.277-2.848V50.312h19.074l6.394,7.415v7.897l-3.652,4.19l4.028,4.3
	V82.335z M349.706,89.697l-3.707-9.833H329.88l-3.708,9.833h-6.018l6.231-16.656l-2.739-2.9l4.781-2.473l6.501-17.354h6.019
	l14.774,39.384L349.706,89.697L349.706,89.697z M392.207,89.697h-23.803V72.986l-3.277-2.848l3.277-2.901V50.312h5.749v33.636
	h18.054V89.697L392.207,89.697z M722.186,67.215c-3.926-1.225-16.408-2.136-17.604-25.196
	C710.795,55.479,722.186,67.215,722.186,67.215z M448.354,65.089h-5.748v-5.643l-4.084-3.384h-9.08l-4.084,3.539v20.807l4.084,3.54
	h9.08l4.084-3.386v-4.836h5.748v7.416l-7.36,6.555h-13.969l-7.416-6.5V73.041l-3.277-2.9l3.277-2.849V56.868l7.416-6.556h13.969
	l7.36,6.556V65.089z M486.932,89.697l-3.706-9.833h-16.118l-3.708,9.833h-6.019l6.232-16.656l-2.74-2.9l4.781-2.473l6.503-17.354
	h6.017l14.775,39.384L486.932,89.697L486.932,89.697z M531.797,82.335l-6.18,7.362h-19.665V72.986l-3.278-2.848l3.278-2.848V50.312
	h19.074l6.395,7.415v7.897l-3.655,4.19l4.031,4.3V82.335z M552.644,73.041v16.656h-5.75V73.041l-3.275-2.9l3.275-2.849v-16.98h5.75
	v16.979l3.277,2.848L552.644,73.041z M598.366,72.986v16.711h-5.749l-16.441-29.175v29.175h-5.749V72.986l-3.277-2.848l3.277-2.901
	V50.312h6.071l16.119,28.37v-28.37h5.749v16.925l3.278,2.902L598.366,72.986z M639.146,56.062h-18.055v11.176h13.917v5.749h-13.917
	v10.908h18.055v5.75h-23.803V72.986l-3.277-2.9l3.277-2.848V50.312h23.803V56.062z M677.134,56.062H665.69v11.229l3.276,2.848
	l-3.276,2.848v16.711h-5.749V72.986l-3.277-2.848l3.277-2.848V56.062h-11.499v-5.75h28.69L677.134,56.062L677.134,56.062z
	 M704.582,98.624c1.194-23.058,13.678-23.97,17.604-25.196C722.186,73.427,710.795,85.163,704.582,98.624z M690.086,70.32
	c0,0,32.443-5.177,32.443,0C722.529,75.499,690.086,70.32,690.086,70.32z"/>
</svg>
